<?xml version="1.0" encoding="UTF-8"?>
<svg id="Ebene_1" xmlns="http://www.w3.org/2000/svg" version="1.1" xmlns:v="https://vecta.io/nano" viewBox="0 0 1000 278.6">
  <!-- Generator: Adobe Illustrator 29.1.0, SVG Export Plug-In . SVG Version: 2.1.0 Build 142)  -->
  <defs>
    <style>
      .st0, .st1, .st2, .st3 {
        display: none;
      }

      .st0, .st4 {
        fill: #f74843;
      }

      .st1, .st5 {
        isolation: isolate;
      }

      .st6, .st2 {
        fill: #fff;
      }

      .st5 {
        font-family: ArialMT, Arial;
        font-size: 152.4px;
      }
    </style>
  </defs>
  <path class="st4" d="M0,278.6V0h1000v278.6H0ZM173.8,57.1l-33.3,126.2-33.3-126.2h-31l50,166.7h28.6l50-166.7s-31,0-31,0ZM347.6,57.1h-40.5l-50,166.7h33.3l10.2-40.5h51l10.2,40.5h33.3l-47.6-166.7h.1ZM580.9,195.2h-71.4V57.1h-31v166.7h102.4v-28.6h0ZM721.4,57.1l-33.3,126.2-33.3-126.2h-31l50,166.7h28.6l50-166.7s-31,0-31,0ZM892.8,150h-45.2v-26.2h40.5v-21.4h-40.5v-23.8h45.2v-21.4h-69v114.3h69v-21.4h0ZM326.2,83.3l18.8,73.8h-37.6l18.8-73.8h0Z"/>
  <rect class="st0" width="1000" height="278.6"/>
  <polygon class="st2" points="509.5 223.8 580.9 223.8 580.9 195.3 509.5 195.3 509.5 57.2 478.5 57.2 478.5 223.8 495.2 223.8 509.5 223.8"/>
  <polygon class="st2" points="702.4 223.8 752.4 57.2 721.4 57.2 688.1 183.3 654.7 57.2 623.8 57.2 673.8 223.8 702.4 223.8"/>
  <polygon class="st2" points="892.8 171.4 892.8 150 847.6 150 847.6 123.8 888 123.8 888 102.4 847.6 102.4 847.6 78.6 892.8 78.6 892.8 57.1 847.6 57.1 823.8 57.1 823.8 171.4 847.6 171.4 892.8 171.4"/>
  <polygon class="st2" points="154.8 223.8 204.8 57.2 173.8 57.2 140.5 183.3 107.1 57.2 76.2 57.2 126.2 223.8 154.8 223.8"/>
  <path class="st2" d="M300.7,183.3h51l10.2,40.5h33.3l-47.6-166.7h-40.5l-50,166.7h33.3l10.2-40.5h.1ZM326.2,83.4l18.8,73.8h-37.6l18.8-73.8h0Z"/>
  <g id="Layer_1" class="st3">
    <g id="bomb">
      <path class="st6" d="M924.9,133l-30.8-17,23.2-35.1-38.5,11.2-2.8-42.6-20.8,39.5-33.3-31.8,13.3,44.3-42.3,1.1,34.5,27-18.2,31.1,34.3-16.5,1.5,35.9,23.2-26.1,29.4,23.6-6.9-36.2,34.3-8.4h-.1ZM883.1,153.5l-15-13.8-15.2,17.5-2.2-25.2-21.1,9.9,10-14.8-23.2-16.1,30.1-.9-5.9-22.8,17.7,16.1,10.5-18.8,3.5,20.6,21.4-6.4-13.8,21.2,19.1,10-19.1,4,3.3,19.5h0Z"/>
      <polygon class="st6" points="845.4 118.8 856.6 119.1 854.5 111.1 862.3 114.4 865.3 108.1 866.7 114.4 873.6 113.6 869.4 119.1 875.6 124.8 869.7 124.8 871.7 131.9 864.8 127.2 860.1 133.4 860.1 126.4 853.5 127.1 856 123.4 845.4 118.8"/>
    </g>
  </g>
  <g class="st1">
    <text class="st5" transform="translate(-530.2 -170.9)"><tspan x="0" y="0">Titling Gothic Narrow Medium</tspan></text>
  </g>
</svg>